<?xml version="1.0" encoding="UTF-8" standalone="no"?>
<!DOCTYPE svg PUBLIC "-//W3C//DTD SVG 1.1//EN" "http://www.w3.org/Graphics/SVG/1.1/DTD/svg11.dtd">
<svg width="100%" height="100%" viewBox="0 0 160 160" version="1.1" xmlns="http://www.w3.org/2000/svg" xmlns:xlink="http://www.w3.org/1999/xlink" xml:space="preserve" xmlns:serif="http://www.serif.com/" style="fill-rule:evenodd;clip-rule:evenodd;stroke-linejoin:round;stroke-miterlimit:2;">
    <g transform="matrix(1,0,0,1,-247.122,-277.939)">
        <g>
            <g transform="matrix(1.33165,0,0,1.33165,-53.6767,-54.5981)">
                <circle cx="285.7" cy="309.534" r="59.815" style="fill:rgb(240,195,50);"/>
            </g>
            <g>
                <g transform="matrix(1,0,0,1,0.0649908,0.155065)">
                    <path d="M329.889,315.823C329.889,314.069 328.464,312.644 326.71,312.644C324.956,312.644 323.531,314.069 323.531,315.823L323.531,322.336C323.531,324.09 324.956,325.515 326.71,325.515C328.464,325.515 329.889,324.09 329.889,322.336L329.889,315.823Z" style="fill:white;"/>
                </g>
                <g transform="matrix(0.707712,0.706501,-0.706501,0.707712,347.505,-125.359)">
                    <path d="M329.889,315.823C329.889,314.069 328.464,312.644 326.71,312.644C324.956,312.644 323.531,314.069 323.531,315.823L323.531,322.336C323.531,324.09 324.956,325.515 326.71,325.515C328.464,325.515 329.889,324.09 329.889,322.336L329.889,315.823Z" style="fill:white;"/>
                </g>
                <g transform="matrix(0.706501,-0.707712,0.707712,0.706501,-103.656,389.481)">
                    <path d="M329.889,315.823C329.889,314.069 328.464,312.644 326.71,312.644C324.956,312.644 323.531,314.069 323.531,315.823L323.531,322.336C323.531,324.09 324.956,325.515 326.71,325.515C328.464,325.515 329.889,324.09 329.889,322.336L329.889,315.823Z" style="fill:white;"/>
                </g>
                <g transform="matrix(0.706501,-0.707712,0.707712,0.706501,-157.029,336.935)">
                    <path d="M329.889,315.823C329.889,314.069 328.464,312.644 326.71,312.644C324.956,312.644 323.531,314.069 323.531,315.823L323.531,322.336C323.531,324.09 324.956,325.515 326.71,325.515C328.464,325.515 329.889,324.09 329.889,322.336L329.889,315.823Z" style="fill:white;"/>
                </g>
                <g transform="matrix(-1,-1.22465e-16,1.22465e-16,-1,652.839,714.688)">
                    <path d="M329.889,315.823C329.889,314.069 328.464,312.644 326.71,312.644C324.956,312.644 323.531,314.069 323.531,315.823L323.531,322.336C323.531,324.09 324.956,325.515 326.71,325.515C328.464,325.515 329.889,324.09 329.889,322.336L329.889,315.823Z" style="fill:white;"/>
                </g>
                <g transform="matrix(-0.707712,-0.706501,0.706501,-0.707712,305.399,840.202)">
                    <path d="M329.889,315.823C329.889,314.069 328.464,312.644 326.71,312.644C324.956,312.644 323.531,314.069 323.531,315.823L323.531,322.336C323.531,324.09 324.956,325.515 326.71,325.515C328.464,325.515 329.889,324.09 329.889,322.336L329.889,315.823Z" style="fill:white;"/>
                </g>
                <g transform="matrix(5.55112e-17,1,-1,5.55112e-17,683.225,30.8818)">
                    <path d="M329.889,315.823C329.889,314.069 328.464,312.644 326.71,312.644C324.956,312.644 323.531,314.069 323.531,315.823L323.531,322.336C323.531,324.09 324.956,325.515 326.71,325.515C328.464,325.515 329.889,324.09 329.889,322.336L329.889,315.823Z" style="fill:white;"/>
                </g>
                <g transform="matrix(6.69535e-17,-1,1,6.69535e-17,-31.381,684.302)">
                    <path d="M329.889,315.823C329.889,314.069 328.464,312.644 326.71,312.644C324.956,312.644 323.531,314.069 323.531,315.823L323.531,322.336C323.531,324.09 324.956,325.515 326.71,325.515C328.464,325.515 329.889,324.09 329.889,322.336L329.889,315.823Z" style="fill:white;"/>
                </g>
                <g transform="matrix(0.270051,0,0,0.270051,249.621,274.002)">
                    <circle cx="285.7" cy="309.534" r="59.815" style="fill:white;"/>
                </g>
            </g>
        </g>
    </g>
</svg>
