<?xml version="1.0" encoding="UTF-8" standalone="no"?>
<!DOCTYPE svg PUBLIC "-//W3C//DTD SVG 1.1//EN" "http://www.w3.org/Graphics/SVG/1.1/DTD/svg11.dtd">
<svg width="100%" height="100%" viewBox="0 0 160 160" version="1.1" xmlns="http://www.w3.org/2000/svg" xmlns:xlink="http://www.w3.org/1999/xlink" xml:space="preserve" xmlns:serif="http://www.serif.com/" style="fill-rule:evenodd;clip-rule:evenodd;stroke-linejoin:round;stroke-miterlimit:2;">
    <g transform="matrix(1,0,0,1,-560.347,-280.347)">
        <g>
            <g transform="matrix(1.33165,0,0,1.33165,259.548,-52.1899)">
                <circle cx="285.7" cy="309.534" r="59.815" style="fill:rgb(118,118,118);"/>
            </g>
            <g transform="matrix(0.506812,0,0,0.506812,326.768,191.199)">
                <path d="M634.984,243.145C623.8,240.92 612.287,240.92 601.102,243.145L598.128,270.882C595.872,271.665 593.664,272.579 591.516,273.621L569.8,256.111C560.318,262.446 552.177,270.587 545.842,280.069L563.352,301.785C562.31,303.934 561.395,306.142 560.613,308.398L532.876,311.372C530.651,322.556 530.651,334.069 532.876,345.254L560.613,348.228C561.395,350.484 562.31,352.692 563.352,354.84L545.842,376.556C552.177,386.038 560.318,394.179 569.8,400.514L591.516,383.004C593.664,384.046 595.872,384.961 598.128,385.743L601.102,413.48C612.287,415.705 623.8,415.705 634.984,413.48L637.958,385.743C640.214,384.961 642.422,384.046 644.57,383.004L666.287,400.514C675.768,394.179 683.909,386.038 690.245,376.556L672.735,354.84C673.777,352.692 674.691,350.484 675.474,348.228L703.211,345.254C705.436,334.069 705.436,322.556 703.211,311.372L675.474,308.398C674.691,306.142 673.777,303.934 672.735,301.785L690.245,280.069C683.909,270.587 675.768,262.446 666.287,256.111L644.57,273.621C642.422,272.579 640.214,271.665 637.958,270.882L634.984,243.145ZM618.043,293.578C637.214,293.578 652.778,309.142 652.778,328.313C652.778,347.483 637.214,363.047 618.043,363.047C598.873,363.047 583.309,347.483 583.309,328.313C583.309,309.142 598.873,293.578 618.043,293.578Z" style="fill:rgb(254,255,254);"/>
            </g>
        </g>
    </g>
</svg>
